<?xml version="1.0" standalone="no"?>
<!DOCTYPE svg PUBLIC "-//W3C//DTD SVG 20010904//EN"
 "http://www.w3.org/TR/2001/REC-SVG-20010904/DTD/svg10.dtd">
<svg version="1.0" xmlns="http://www.w3.org/2000/svg"
 width="571.000000pt" height="673.000000pt" viewBox="0 0 571.000000 673.000000"
 preserveAspectRatio="xMidYMid meet">
<metadata>
Created by potrace 1.15, written by Peter Selinger 2001-2017
</metadata>
<g transform="translate(0.000000,673.000000) scale(0.100000,-0.100000)"
fill="#000000" stroke="none">
<path d="M0 6526 l0 -204 48 -8 c26 -4 56 -6 67 -5 17 2 17 0 5 -8 -12 -9 -10
-11 10 -11 23 -1 23 -2 5 -9 -44 -18 -59 -48 -58 -116 0 -39 6 -71 14 -81 7
-9 18 -26 24 -38 12 -25 129 -85 182 -93 21 -4 34 -2 30 3 -3 5 6 15 20 21 21
10 23 10 13 -3 -8 -9 -9 -14 -2 -14 6 0 16 8 21 18 6 9 10 13 11 7 0 -20 -18
-38 -32 -32 -8 3 -15 -1 -15 -8 0 -7 6 -11 12 -8 19 7 27 -27 10 -43 -20 -20
-19 -34 3 -34 14 0 15 -2 2 -10 -13 -9 -13 -11 0 -20 11 -7 11 -10 2 -10 -7 0
-12 -8 -10 -17 3 -22 -27 -67 -40 -59 -5 3 -7 -6 -4 -20 3 -16 -1 -29 -9 -35
-8 -4 -14 -12 -15 -16 -5 -48 -19 -82 -36 -86 -11 -3 -17 -10 -13 -16 3 -6 1
-19 -4 -28 -6 -10 -11 -12 -11 -5 0 6 -5 12 -11 12 -5 0 -8 -3 -6 -7 4 -9 -29
-44 -36 -37 -8 8 -58 -16 -52 -25 6 -11 -31 -25 -45 -16 -5 3 -26 3 -45 -1
l-35 -6 0 -1950 c0 -1541 3 -1948 13 -1942 9 5 9 4 0 -7 -16 -16 -17 -54 -2
-81 7 -12 7 -18 1 -14 -7 4 -11 -69 -11 -215 -2 -220 -2 -221 19 -214 20 6 20
5 8 -17 -7 -12 -17 -26 -23 -30 -6 -5 -5 -12 3 -20 14 -14 16 -78 2 -78 -16 0
-11 -27 6 -34 25 -10 29 -7 9 7 -12 10 -14 16 -7 21 7 4 12 23 12 42 0 19 3
34 8 34 4 0 7 -16 6 -35 -1 -25 2 -35 13 -35 13 0 13 -3 3 -15 -17 -21 8 -20
38 0 18 13 21 14 16 1 -3 -8 -15 -17 -27 -20 -16 -4 -19 -8 -9 -14 10 -7 10
-11 -2 -22 -11 -8 -15 -25 -13 -51 2 -22 0 -39 -5 -39 -4 0 -8 -15 -8 -33 0
-19 -3 -37 -7 -41 -12 -11 -14 -86 -3 -86 6 0 10 18 10 40 0 29 4 40 15 40 12
0 15 -17 15 -90 0 -87 1 -90 23 -87 21 2 22 -1 25 -110 2 -96 5 -112 20 -115
13 -3 16 -12 14 -46 -2 -28 2 -47 12 -57 8 -9 13 -22 9 -31 -3 -8 2 -23 12
-34 10 -11 15 -26 12 -34 -4 -9 -2 -18 4 -21 5 -4 7 -11 4 -16 -4 -5 194 -9
509 -9 284 0 515 3 515 8 -3 20 3 30 23 36 19 5 21 8 8 16 -13 8 -13 10 1 10
11 0 16 9 15 33 -1 29 2 32 27 30 21 -1 27 3 27 17 0 14 5 18 18 14 12 -4 13
-3 4 3 -10 7 -8 14 8 28 11 10 20 23 20 28 0 6 -7 2 -16 -9 -8 -10 -13 -14
-10 -7 9 16 -14 29 -24 13 -4 -7 -10 -8 -13 -3 -3 5 3 14 14 21 10 7 19 8 19
3 0 -5 11 -8 25 -7 17 1 26 8 30 26 4 18 25 36 78 65 40 21 82 40 93 40 12 1
34 9 49 19 16 10 46 19 67 19 21 0 38 5 38 11 0 14 34 36 78 52 38 14 39 11
10 -25 -13 -15 -34 -42 -48 -61 -34 -45 -110 -138 -137 -168 -13 -14 -23 -28
-23 -32 0 -4 -12 -11 -26 -14 -36 -9 -226 -98 -242 -113 -17 -16 -17 -16 -37
3 -9 9 -19 13 -23 9 -4 -3 1 -13 11 -20 19 -13 7 -32 -13 -20 -5 3 -10 1 -10
-4 0 -6 -5 -11 -11 -11 -5 0 -7 5 -4 10 3 6 1 10 -4 10 -6 0 -11 -7 -11 -15 0
-13 32 -15 224 -15 210 0 226 1 238 19 8 11 39 48 69 83 31 34 136 155 235
268 98 113 184 209 191 213 7 4 13 13 13 18 0 6 18 29 39 52 22 23 57 65 77
92 21 28 53 66 72 87 18 20 43 49 55 65 12 15 34 41 50 57 l27 29 0 -41 c0
-22 -5 -53 -11 -69 -7 -19 -7 -29 0 -31 6 -2 11 -29 11 -60 0 -32 5 -90 10
-131 8 -57 7 -77 -2 -82 -9 -6 -7 -16 10 -38 12 -17 22 -33 22 -37 0 -4 14
-36 32 -71 l32 -65 -44 -40 -43 -40 -17 22 c-12 16 -19 19 -25 11 -4 -7 0 -20
9 -30 9 -10 16 -21 16 -24 0 -11 -74 -117 -82 -117 -4 0 -14 10 -22 22 -22 32
-32 14 -14 -25 14 -29 14 -36 2 -60 -8 -15 -20 -27 -26 -27 -6 0 -8 -3 -5 -7
4 -3 0 -15 -10 -25 -16 -17 -10 -18 154 -18 l171 0 30 34 c17 19 33 32 36 29
3 -3 9 3 12 13 4 10 16 27 26 37 10 10 16 23 12 28 -6 10 60 -30 111 -67 l28
-21 -22 -24 -22 -24 419 -3 419 -2 46 26 c51 28 75 57 99 121 15 40 14 98 -2
88 -10 -6 -23 22 -25 56 -2 20 4 28 24 35 26 9 26 9 41 -65 17 -82 36 -105 70
-83 11 6 29 12 40 12 11 0 36 6 55 14 l34 14 -5 59 c-7 80 -24 133 -43 134 -9
0 -1 7 17 15 17 8 32 19 32 24 0 6 7 10 15 10 8 0 15 -8 15 -18 0 -22 27 -80
48 -105 14 -16 13 -23 -6 -70 -12 -28 -35 -94 -52 -145 -17 -51 -34 -100 -37
-108 -3 -9 2 -14 15 -14 20 0 49 42 57 83 3 11 18 56 34 100 39 109 121 367
121 383 0 21 -19 27 -38 12 -16 -12 -16 -11 -2 7 24 31 60 74 125 146 89 100
100 115 171 249 37 68 67 146 89 225 9 33 21 74 26 90 5 17 12 52 15 78 4 26
10 47 14 47 11 0 -7 -120 -28 -185 -11 -33 -23 -75 -26 -92 -4 -18 -12 -35
-17 -38 -5 -4 -9 -24 -9 -46 0 -45 -17 -84 -49 -113 -25 -23 -28 -41 -5 -32
13 5 15 2 10 -16 -4 -13 -11 -38 -16 -57 -5 -18 -13 -38 -19 -44 -6 -6 -11
-21 -11 -34 0 -13 -7 -50 -16 -83 -17 -58 -18 -60 -80 -92 -35 -17 -64 -36
-64 -40 0 -11 61 3 88 20 26 17 27 11 8 -31 -8 -18 -21 -49 -30 -69 -9 -22
-30 -47 -56 -64 -29 -19 -37 -30 -28 -35 7 -5 23 -2 35 7 27 17 28 16 7 -33
-24 -54 -32 -75 -38 -98 -4 -11 -29 -35 -56 -53 -28 -17 -50 -37 -50 -42 0
-12 17 -13 22 -1 4 12 48 24 48 13 0 -5 -20 -40 -45 -78 -24 -38 -45 -72 -45
-76 0 -5 36 -8 80 -8 l81 0 20 34 c13 22 39 43 74 61 30 14 55 30 55 35 0 18
-18 18 -48 0 l-31 -19 20 37 c40 71 93 157 105 170 7 6 15 20 18 30 4 9 21 24
38 32 33 16 55 49 24 37 -9 -4 -16 -4 -16 -2 0 13 106 182 122 195 10 9 20 24
22 34 3 19 132 146 149 146 20 0 113 64 169 117 31 29 54 53 51 53 -3 0 4 8
15 19 12 10 22 23 22 29 0 5 7 13 16 16 11 4 14 2 11 -6 -31 -79 -40 -98 -48
-98 -5 0 -9 -7 -9 -15 0 -19 -69 -87 -81 -79 -5 3 -8 2 -7 -3 2 -8 -69 -83
-79 -83 -3 0 -43 -37 -88 -82 -57 -57 -106 -120 -158 -203 -84 -136 -176 -308
-199 -375 -9 -25 -19 -53 -23 -62 -7 -17 16 -18 393 -18 l401 0 15 22 c9 12
16 32 16 43 -1 17 -2 18 -13 5 -38 -47 -44 -43 -46 28 -1 57 3 76 24 113 26
47 36 114 13 91 -7 -7 -18 -27 -25 -45 -11 -31 -12 -31 -14 28 -5 94 -1 126
21 172 11 24 20 50 20 58 0 23 -19 18 -30 -7 -8 -21 -9 -19 -11 12 -1 19 -2
42 -3 50 -1 8 3 24 8 34 12 26 24 136 15 136 -4 0 -10 -10 -12 -22 -2 -13 -5
14 -7 60 -1 45 -2 92 -3 105 -1 29 45 187 55 187 20 0 28 -136 14 -235 l-7
-50 19 34 19 34 12 -48 c13 -50 9 -69 -26 -140 -8 -16 -13 -43 -11 -60 4 -29
5 -28 28 23 13 29 26 49 30 45 4 -4 13 -36 19 -71 11 -55 10 -69 -5 -110 -10
-26 -26 -59 -36 -74 -10 -14 -18 -37 -18 -50 l0 -23 20 25 c11 14 29 43 40 65
21 46 24 41 39 -55 8 -56 7 -68 -8 -90 -10 -14 -32 -46 -50 -71 -21 -29 -32
-55 -29 -70 3 -20 10 -13 52 51 57 88 54 91 82 -83 l19 -117 52 0 53 0 0 3365
0 3365 -2855 0 -2855 0 0 -204z m250 -365 c19 -15 39 -42 44 -59 8 -29 -2
-120 -11 -95 -2 7 -11 9 -18 7 -23 -9 -100 36 -121 69 -28 47 -34 66 -23 72 5
4 6 11 3 17 -5 7 -1 9 9 5 9 -3 16 -3 16 1 -3 20 4 24 33 18 18 -4 49 -19 68
-35z m2486 -130 c-14 -22 -239 -71 -329 -71 -32 0 -67 -16 -67 -30 0 -5 14 -7
32 -3 43 9 29 -10 -20 -26 -22 -8 -55 -26 -73 -42 -19 -16 -53 -35 -77 -43
l-43 -15 20 27 c32 45 75 88 99 101 56 30 210 78 223 70 7 -4 19 -3 26 2 6 6
31 13 55 16 24 2 59 8 78 13 48 11 82 12 76 1z m554 -158 c19 -8 29 -10 60
-12 20 -1 22 -3 10 -11 -11 -7 -7 -10 18 -10 22 0 32 -5 32 -15 0 -8 7 -15 15
-15 10 0 12 6 8 18 -7 16 -6 16 11 0 9 -10 25 -18 34 -18 13 0 14 -2 4 -8 -9
-6 -5 -12 14 -21 19 -8 29 -9 34 -2 4 7 13 6 26 -4 19 -15 19 -15 -1 -9 -16 5
-17 4 -5 -5 18 -13 53 -15 45 -2 -3 5 7 3 23 -4 24 -12 36 -12 88 2 60 16 62
16 103 -5 23 -12 55 -38 72 -57 17 -19 39 -37 50 -40 11 -4 18 -9 15 -12 -6
-6 0 -12 72 -71 28 -24 56 -40 62 -37 6 3 7 -1 4 -9 -4 -10 -1 -16 9 -16 10 0
13 -7 10 -20 -4 -14 0 -20 10 -20 8 0 25 -21 38 -47 12 -27 26 -50 29 -53 11
-8 22 -117 21 -197 -1 -72 -30 -183 -55 -212 -7 -9 -18 -30 -25 -48 -7 -18
-24 -39 -36 -47 -13 -9 -31 -28 -41 -44 -11 -19 -29 -32 -53 -38 -20 -6 -35
-15 -34 -22 2 -6 -9 -14 -25 -18 -40 -8 -115 -35 -129 -47 -9 -6 -18 -6 -27 2
-10 8 -21 9 -42 1 -15 -6 -33 -9 -40 -6 -8 3 -16 1 -19 -4 -4 -6 0 -10 7 -11
9 0 9 -2 1 -5 -6 -3 -29 6 -51 20 -22 14 -52 28 -66 32 -15 3 -29 10 -32 15
-3 5 -10 7 -15 3 -5 -3 -33 19 -62 48 -36 37 -81 69 -146 102 -51 26 -95 45
-97 43 -5 -5 68 -52 144 -92 29 -16 61 -42 72 -59 10 -17 28 -38 39 -46 13 -9
21 -26 21 -42 0 -15 5 -28 10 -28 6 0 10 -9 10 -20 0 -11 5 -20 11 -20 5 0 7
-4 4 -10 -3 -5 -17 2 -30 18 -14 15 -25 21 -25 14 0 -7 -17 0 -42 18 -22 16
-47 30 -55 30 -7 0 -13 4 -13 8 0 5 -12 14 -26 21 -15 6 -24 14 -21 18 7 7
-53 63 -68 63 -5 0 -23 7 -39 15 -16 9 -36 13 -43 10 -8 -2 -11 0 -8 5 3 6 -3
10 -15 10 -13 0 -19 -4 -14 -11 5 -8 1 -8 -14 0 -28 15 -95 15 -86 0 4 -7 0
-9 -14 -5 -11 4 -23 2 -27 -4 -4 -6 7 -10 27 -11 18 -1 25 -3 15 -6 -9 -2 -15
-8 -12 -13 3 -5 -6 -3 -21 5 -36 18 -57 10 -43 -17 8 -15 8 -23 -1 -32 -6 -6
-11 -6 -10 -1 4 20 0 38 -7 31 -8 -8 -10 -13 -12 -43 -1 -14 -4 -14 -13 -5
-10 10 -10 15 2 22 9 6 10 10 3 10 -7 0 -17 -9 -23 -20 -6 -12 -21 -20 -35
-20 -14 0 -25 -5 -25 -11 0 -6 7 -9 15 -5 27 10 16 -2 -16 -18 -22 -11 -28
-12 -20 -2 6 7 8 16 4 20 -4 4 -14 -2 -23 -12 -19 -25 -60 -38 -60 -20 -1 7
-7 2 -15 -12 -8 -14 -14 -34 -14 -45 1 -11 5 -5 11 14 5 19 13 30 16 25 4 -5
12 -13 17 -18 6 -6 3 -7 -7 -3 -14 5 -18 1 -18 -15 l0 -21 23 20 c12 11 28 18
34 16 7 -3 46 14 86 36 113 62 251 75 405 36 63 -16 142 -60 142 -80 0 -9 -6
-12 -15 -9 -8 4 -15 2 -15 -4 0 -6 6 -12 13 -15 7 -2 8 -8 3 -13 -5 -5 -11 -4
-13 4 -3 6 -9 10 -14 7 -5 -4 -6 1 -3 9 4 11 0 16 -11 16 -9 0 -14 -4 -10 -9
3 -6 -7 -6 -27 0 -41 11 -41 11 -33 -1 4 -6 -5 -10 -19 -10 -14 0 -26 5 -26
10 0 30 -298 -2 -416 -44 -127 -45 -261 -147 -295 -224 -12 -27 -18 -32 -39
-27 -178 38 -279 19 -280 -52 0 -30 23 -41 81 -35 32 3 49 1 49 -7 0 -6 -13
-11 -29 -11 -45 0 -102 -30 -171 -90 -83 -71 -103 -92 -136 -137 -50 -68 -73
-86 -90 -72 -13 11 -14 9 -4 -12 9 -19 8 -31 -4 -54 -9 -17 -16 -23 -16 -14 0
8 5 20 12 27 6 6 8 15 3 19 -4 5 -10 2 -12 -5 -3 -6 -9 -10 -14 -6 -5 3 -9 -2
-9 -11 0 -10 -6 -15 -13 -12 -8 3 -14 -4 -15 -16 -1 -17 1 -19 8 -7 7 12 10 9
10 -12 0 -16 -5 -28 -11 -28 -5 0 -7 5 -3 11 9 15 -38 0 -48 -15 -11 -16 -10
-26 2 -26 6 0 10 5 10 11 0 8 5 8 15 -1 8 -7 15 -18 15 -24 0 -8 -2 -8 -8 1
-4 6 -19 9 -35 6 -21 -4 -25 -8 -15 -14 10 -7 9 -9 -4 -9 -27 0 -22 31 11 65
18 20 27 39 25 55 -1 14 -3 29 -3 33 -3 24 -56 57 -92 57 -26 0 -46 7 -60 21
-22 22 -20 42 15 99 42 69 53 105 52 167 -1 54 2 63 19 68 19 5 19 6 2 16 -20
12 -18 27 14 97 10 23 24 42 30 42 6 0 8 9 4 19 -7 22 25 101 48 120 8 6 13
20 10 31 -5 19 34 110 48 110 4 0 10 11 13 25 4 14 11 25 16 25 6 0 10 7 10
15 0 8 25 54 55 100 30 47 55 88 55 90 0 3 24 42 54 88 29 45 55 87 57 92 10
27 80 114 135 169 209 209 374 360 374 343 0 -3 13 8 30 24 23 23 35 28 57 24
22 -4 24 -3 8 4 -19 8 -18 9 8 20 15 6 27 15 27 21 0 6 5 8 10 5 6 -3 10 0 11
7 0 8 3 6 7 -4 6 -14 10 -15 25 -3 10 7 19 22 20 33 1 17 5 19 20 10 23 -12
34 -3 18 16 -8 10 -9 16 -1 21 5 3 10 -1 10 -9 0 -9 9 -16 20 -16 11 0 20 7
20 15 0 9 6 12 15 9 8 -4 15 -1 15 6 0 10 3 10 15 0 12 -10 15 -10 15 2 0 10
11 15 31 16 17 0 33 3 36 6 6 6 183 -4 203 -11z m-1080 -86 c0 -2 -11 -19 -25
-38 -97 -131 -169 -204 -239 -242 -42 -23 -61 -40 -61 -53 0 -21 -68 -94 -88
-94 -17 0 -69 -54 -61 -63 7 -6 -19 -51 -43 -75 -7 -7 -13 -20 -13 -28 0 -8
-4 -12 -10 -9 -5 3 -10 0 -10 -8 0 -7 -11 -19 -25 -25 -14 -6 -25 -18 -25 -27
0 -8 -4 -23 -9 -33 -5 -9 -12 -25 -15 -35 -3 -10 -10 -16 -15 -13 -5 4 -12 -7
-16 -23 -3 -16 -13 -35 -21 -42 -8 -6 -14 -18 -14 -25 0 -8 -4 -14 -9 -14 -5
0 -15 -15 -22 -32 -16 -39 -34 -60 -44 -50 -4 4 -6 3 -5 -3 5 -24 -15 -53 -62
-90 -73 -58 -88 -71 -88 -80 0 -4 16 2 35 14 19 11 37 16 40 11 3 -5 1 -11 -4
-15 -6 -3 -8 -12 -4 -20 3 -8 1 -15 -5 -15 -12 0 -114 -102 -107 -108 2 -3 12
1 20 8 12 10 19 10 27 2 9 -9 9 -12 0 -12 -7 0 -12 -6 -12 -14 0 -7 -17 -33
-38 -57 -21 -24 -58 -74 -82 -111 -24 -38 -47 -68 -51 -68 -4 0 -10 -11 -13
-25 -6 -23 -26 -36 -26 -17 0 4 22 50 49 102 27 52 57 122 66 155 9 33 25 86
34 117 9 32 19 58 23 58 4 0 10 17 13 38 16 94 75 195 173 297 37 38 90 99
117 135 27 36 53 67 57 68 4 2 8 10 8 17 0 7 12 16 26 19 20 5 25 12 21 26 -5
21 16 70 48 109 103 125 160 180 262 258 118 88 193 132 226 133 9 0 17 -1 17
-3z m1095 -1249 c6 -13 17 -22 24 -20 7 1 11 -3 9 -10 -3 -9 -35 -15 -93 -20
-49 -4 -98 -11 -109 -16 -12 -5 -41 -18 -66 -28 -63 -26 -114 -67 -201 -160
-41 -45 -98 -100 -126 -123 -88 -70 -163 -187 -163 -257 0 -25 -18 -33 -24
-11 -13 41 -16 68 -6 62 5 -3 10 -1 10 4 0 6 -4 11 -9 11 -5 0 -12 7 -15 16
-5 14 -4 15 9 4 13 -10 15 -9 15 8 0 16 5 20 18 17 9 -3 5 1 -10 8 l-27 13 27
12 c29 13 102 78 102 90 0 4 17 24 38 43 38 37 50 56 75 119 16 41 116 132
197 180 59 36 161 60 248 60 28 0 52 5 52 10 0 18 15 11 25 -12z m-244 -171
c-6 -15 -4 -34 5 -56 8 -19 13 -35 12 -36 -2 0 -34 -17 -71 -36 -38 -19 -82
-45 -97 -59 -16 -14 -39 -34 -52 -46 -12 -11 -33 -33 -46 -48 -13 -15 -26 -25
-29 -22 -3 3 0 13 8 22 7 9 18 24 24 33 5 10 20 32 32 51 12 18 19 39 16 46
-6 15 115 139 146 149 12 3 21 11 21 16 0 5 9 9 20 9 16 0 18 -4 11 -23z m324
-92 c52 -6 125 -28 125 -37 0 -2 -55 -4 -122 -5 -68 -1 -139 -2 -158 -4 -19
-1 -53 1 -76 5 -31 5 -44 3 -54 -9 -14 -17 -30 -20 -30 -6 0 22 213 84 240 71
8 -5 42 -11 75 -15z m-2482 -124 c-18 -55 -36 -127 -39 -160 -4 -34 -10 -61
-13 -61 -38 1 -50 14 -54 59 -3 45 -3 44 -5 -11 -1 -31 -7 -60 -13 -64 -6 -3
-9 -22 -7 -41 4 -30 3 -33 -8 -18 -7 10 -16 38 -19 64 -3 25 -11 62 -17 82 -8
27 -7 42 2 60 16 30 80 94 80 79 0 -20 20 -10 34 18 17 33 57 77 77 85 8 3 14
6 15 6 0 1 -14 -44 -33 -98z m2612 32 c21 -10 41 -27 46 -39 6 -18 4 -20 -19
-16 -15 3 -32 9 -38 13 -25 20 -129 22 -190 3 -32 -10 -82 -19 -110 -20 -29
-1 -62 -8 -75 -15 -21 -11 -22 -10 -12 3 15 17 101 62 157 81 56 19 192 14
241 -10z m-2187 -115 c6 -24 14 -86 18 -138 6 -89 9 -99 45 -152 32 -47 35
-57 22 -62 -27 -11 -86 45 -106 100 -16 41 -18 67 -13 159 3 61 6 116 7 123 4
25 17 11 27 -30z m2167 -50 c24 -11 87 -95 102 -135 3 -10 21 -32 39 -50 18
-17 30 -34 26 -37 -3 -3 -1 -6 5 -6 14 0 33 -77 33 -134 0 -160 -113 -358
-250 -438 -25 -14 -74 -32 -110 -38 -36 -7 -69 -17 -74 -21 -14 -12 -29 -11
-21 1 3 6 -1 10 -9 10 -9 0 -16 -4 -16 -10 0 -13 -37 -13 -45 0 -4 6 1 7 11 3
12 -4 15 -3 10 5 -4 7 -16 12 -27 12 -10 0 -19 6 -19 13 -1 6 -7 1 -15 -13 -8
-14 -14 -19 -15 -12 0 7 -4 10 -10 7 -6 -3 -7 1 -4 9 3 9 10 13 15 10 5 -3 9
0 9 5 0 15 -13 14 -29 -1 -11 -11 -13 -10 -8 5 4 11 3 16 -3 12 -6 -3 -20 1
-32 9 -16 11 -18 16 -8 17 8 0 0 5 -18 10 -18 5 -31 13 -28 18 3 4 -13 27 -34
50 -31 34 -35 42 -19 38 20 -5 20 -5 2 15 -14 16 -18 36 -18 99 0 43 -2 79 -5
79 -7 0 -4 90 4 97 5 6 10 -21 7 -40 -1 -5 2 -6 7 -3 4 2 9 24 10 48 2 29 12
54 30 78 15 19 33 47 40 63 6 15 16 27 22 27 5 0 10 7 10 15 0 8 3 15 8 15 4
0 19 11 33 23 44 42 102 74 172 97 37 12 74 28 82 37 10 9 15 10 15 2 0 -9 4
-8 15 1 8 7 15 9 15 6 0 -4 8 -2 18 3 23 14 46 13 77 -1z m-978 -135 c31 -76
33 -226 4 -343 -5 -19 -12 -47 -15 -61 -3 -14 -15 -36 -26 -49 -13 -15 -18
-30 -14 -44 9 -28 12 -43 7 -33 -9 14 -22 -4 -16 -21 6 -16 6 -16 -10 0 -9 9
-17 21 -17 27 0 6 -8 11 -17 11 -15 0 -16 -2 -3 -10 9 -6 10 -10 3 -10 -6 0
-20 -3 -30 -6 -13 -4 -15 -3 -4 4 9 7 10 12 2 16 -6 4 -11 25 -11 48 0 27 -11
61 -32 101 -22 40 -29 61 -21 64 8 3 9 12 3 27 -10 28 -8 59 5 69 6 4 4 11 -5
17 -13 8 -12 10 4 10 12 0 16 5 12 16 -3 8 -2 13 3 10 5 -3 14 1 21 9 10 12
10 15 -1 16 -10 0 -11 2 -1 6 6 2 10 9 6 14 -3 5 1 9 9 9 10 0 13 7 10 20 -3
11 0 20 6 20 6 0 11 -5 11 -11 0 -5 5 -7 11 -3 8 4 7 9 -2 15 -22 13 3 45 32
41 14 -2 19 0 13 5 -9 6 -8 11 2 21 12 10 14 10 14 -2 0 -8 4 -17 9 -20 4 -3
6 6 3 19 -6 35 20 33 35 -2z m-1782 -130 c38 -77 48 -108 46 -143 0 -25 6 -70
14 -100 18 -65 18 -70 5 -70 -14 0 -77 114 -95 172 -15 52 -33 238 -23 238 3
0 27 -44 53 -97z m665 -203 c0 -3 -4 -10 -9 -15 -9 -9 -96 -182 -149 -295 -22
-46 -22 -81 -1 -106 10 -12 8 -18 -7 -29 -10 -8 -22 -15 -25 -15 -12 0 -39 49
-39 72 0 42 79 224 104 240 6 4 12 21 12 38 3 69 7 94 11 78 7 -28 18 -21 37
22 16 36 19 38 42 28 13 -6 24 -14 24 -18z m491 -91 c32 -34 59 -66 59 -71 0
-5 14 -36 30 -70 40 -80 39 -123 -2 -85 -17 15 -44 32 -84 52 -72 37 -143 140
-128 188 20 66 52 62 125 -14z m2307 -42 c17 -13 28 -27 24 -32 -4 -4 0 -6 8
-3 32 11 167 -99 357 -288 151 -152 171 -180 178 -262 7 -68 18 -105 59 -194
14 -31 26 -63 26 -72 0 -8 6 -21 13 -28 20 -21 38 -68 31 -80 -4 -7 -2 -8 4
-4 7 4 12 1 12 -7 0 -29 28 -67 82 -112 63 -51 68 -64 74 -183 3 -64 0 -92
-12 -118 -14 -29 -16 -53 -10 -127 3 -51 9 -112 13 -136 l6 -44 -24 18 c-13
10 -32 34 -41 54 -28 58 -77 110 -111 119 -33 9 -40 24 -24 56 6 11 5 22 -2
29 -14 14 -14 62 -1 88 14 25 3 44 -16 28 -8 -6 -17 -10 -20 -7 -8 8 -7 61 1
87 7 21 5 23 -12 19 -29 -8 -48 29 -39 75 6 34 -6 58 -19 37 -11 -18 -23 -11
-45 25 -21 35 -22 37 -4 56 13 15 15 22 6 31 -9 9 -16 7 -31 -6 -18 -16 -19
-15 -40 20 -22 36 -22 64 -1 64 14 0 13 27 -2 36 -6 4 -16 0 -23 -9 -17 -24
-30 -21 -54 10 -20 24 -20 28 -6 49 17 27 20 60 5 69 -5 3 -10 3 -10 -2 0 -4
-8 -18 -18 -31 l-18 -24 -31 28 -32 27 25 36 c26 38 30 56 14 66 -5 3 -22 -14
-37 -39 l-29 -45 -32 30 c-30 28 -42 59 -24 59 5 0 18 17 30 39 20 35 20 51 1
51 -11 0 -44 -62 -41 -77 5 -23 -34 -13 -60 15 -22 25 -26 49 -9 62 15 11 53
72 48 76 -9 9 -41 -17 -67 -53 -23 -33 -29 -35 -82 -37 -61 -1 -61 -2 -12 54
12 14 34 48 49 75 15 28 32 55 37 62 5 7 8 18 6 25 -3 7 -11 2 -22 -13 -128
-179 -195 -258 -265 -311 -31 -23 -58 -44 -61 -48 -18 -20 -125 -80 -145 -80
-12 0 -12 4 3 23 47 61 264 264 275 256 16 -12 121 124 152 196 24 60 14 164
-22 206 -8 9 -16 26 -18 39 -2 12 -7 25 -11 29 -4 3 -4 -2 -1 -11 4 -10 2 -18
-3 -18 -6 0 -10 4 -10 9 0 6 -13 18 -30 28 -16 9 -30 21 -30 26 0 5 12 -1 27
-13 15 -12 29 -16 32 -11 4 5 19 8 33 7 29 -3 28 3 0 37 -21 23 -12 21 26 -6z
m-2528 -89 c30 -6 81 -25 113 -44 32 -19 62 -34 68 -34 5 0 9 -4 9 -10 0 -5 5
-10 11 -10 6 0 33 -18 59 -40 26 -22 72 -56 101 -77 107 -72 198 -183 151
-183 -10 0 -85 66 -167 148 -148 145 -209 190 -286 208 -19 4 -37 9 -41 10 -5
1 -43 3 -85 4 -63 2 -71 4 -43 10 19 4 27 8 17 9 -26 2 -11 20 16 19 12 0 47
-5 77 -10z m40 -68 c71 -16 121 -41 178 -89 49 -42 113 -119 69 -82 -32 26
-26 6 8 -31 19 -19 32 -38 29 -41 -3 -3 27 -38 65 -78 39 -41 66 -76 61 -77
-6 -2 -22 8 -37 22 -14 14 -30 23 -36 19 -5 -3 -7 -2 -4 4 8 13 -29 53 -51 53
-15 0 -15 2 -2 10 8 5 10 10 4 10 -6 0 -42 30 -80 66 -107 103 -163 142 -225
155 -50 12 -88 29 -62 29 7 0 10 9 8 20 -4 23 7 25 75 10z m1976 -111 c-3 -17
-2 -38 3 -48 5 -9 7 -22 3 -27 -8 -12 -45 -28 -39 -16 3 4 -4 16 -14 26 -11
11 -19 14 -19 8 0 -6 5 -14 10 -17 10 -6 2 -86 -9 -95 -4 -3 -18 -21 -31 -40
-27 -39 -39 -50 -59 -50 -8 0 -11 6 -7 15 3 9 0 15 -10 15 -8 0 -12 5 -9 10 4
6 11 8 16 5 5 -3 6 1 3 9 -3 9 -1 16 6 16 6 0 9 4 6 9 -3 5 1 11 9 15 8 3 15
15 15 26 0 11 5 20 10 20 17 0 52 37 42 44 -14 9 -2 46 13 40 7 -3 15 4 18 16
3 12 10 19 15 16 5 -3 12 3 15 14 8 32 20 23 13 -11z m-873 -26 c19 -17 20
-17 14 0 -4 11 -1 17 9 17 8 0 13 -4 10 -8 -3 -5 4 -16 15 -25 10 -9 19 -24
19 -32 0 -10 5 -13 12 -9 8 5 9 2 5 -9 -3 -10 -3 -17 2 -17 4 0 6 -11 4 -24
-3 -13 0 -27 6 -30 6 -4 11 -14 11 -22 0 -9 -5 -12 -12 -8 -7 5 -9 0 -6 -14 3
-11 0 -30 -8 -40 -8 -11 -16 -37 -19 -56 -5 -42 -13 -58 -24 -51 -5 2 -8 -6
-8 -18 -1 -12 -2 -31 -3 -42 -2 -17 -3 -17 -10 5 -7 21 -8 22 -9 5 -1 -12 -15
-26 -36 -36 -35 -16 -35 -16 -35 9 0 29 38 95 50 87 11 -7 50 16 50 29 0 4 -7
3 -15 -4 -20 -16 -19 -8 3 32 36 64 39 128 6 128 -8 0 -14 6 -14 13 0 7 -9 30
-20 52 -15 29 -17 42 -9 52 11 12 5 17 -13 14 -5 0 -8 4 -8 9 0 15 11 12 33
-7z m-1139 -133 c14 0 37 -5 53 -12 15 -6 33 -12 38 -12 6 -1 11 -11 13 -23 2
-13 8 -23 13 -23 5 0 9 -7 9 -15 0 -8 5 -15 11 -15 5 0 7 -4 4 -10 -3 -5 -2
-10 3 -10 10 0 47 -33 76 -67 15 -18 16 -26 7 -37 -10 -12 -8 -17 7 -25 11 -6
23 -7 27 -3 5 4 5 1 1 -6 -5 -9 -3 -12 6 -10 17 3 123 -68 153 -103 14 -17 8
-14 -21 8 -22 18 -52 37 -67 44 -15 7 -27 17 -27 23 0 7 -4 6 -11 -1 -8 -8
-19 -6 -40 4 -23 11 -33 12 -43 3 -11 -8 -16 -8 -22 1 -4 7 -3 10 2 7 5 -3 15
0 22 8 13 14 5 19 -20 15 -5 0 -8 4 -8 10 0 5 -4 7 -10 4 -5 -3 -17 10 -27 29
-9 20 -21 36 -25 36 -5 0 -7 4 -3 9 3 5 -1 16 -9 24 -8 8 -12 17 -9 21 4 3 1
6 -6 6 -7 0 -10 4 -7 9 6 9 -39 30 -64 29 -32 -2 -89 30 -88 49 1 10 -2 29 -7
43 -8 24 -7 24 18 7 15 -9 37 -17 51 -17z m2187 -605 c5 -4 16 -2 23 5 8 6 26
8 40 4 28 -7 34 -19 12 -27 -10 -4 -12 -18 -8 -54 l5 -48 -22 19 c-19 17 -21
17 -21 2 0 -9 7 -19 15 -22 12 -5 15 -24 15 -85 0 -66 -2 -77 -15 -73 -19 8
-20 -16 0 -42 17 -22 19 -43 5 -64 -9 -13 -14 -10 -35 15 -33 40 -42 25 -14
-24 l22 -41 -19 -40 c-10 -22 -23 -40 -27 -40 -4 0 -16 20 -27 45 -11 25 -24
45 -30 45 -13 0 -12 -2 14 -82 18 -53 18 -58 2 -82 -9 -14 -20 -26 -25 -26 -5
0 -19 28 -32 63 -29 78 -39 46 -11 -36 l20 -55 -27 -11 c-68 -26 -65 -28 -87
58 -10 43 -23 78 -29 77 -13 -1 -8 -40 5 -44 6 -2 8 -7 6 -11 -2 -3 0 -29 5
-56 5 -27 6 -57 2 -65 -3 -8 -8 -22 -9 -30 -1 -8 -5 -24 -10 -34 -5 -12 -4
-17 3 -13 22 14 -12 -139 -44 -195 -2 -4 9 -14 24 -22 25 -12 33 -12 73 3 25
9 63 18 85 20 22 1 54 9 71 16 23 10 35 10 43 2 8 -8 11 -8 11 2 0 16 18 33
53 49 35 15 37 15 37 -4 0 -8 5 -12 10 -9 6 3 10 18 10 31 0 15 10 34 23 45
28 24 37 24 37 0 0 -19 17 -38 26 -29 2 3 -1 19 -7 37 -10 28 -9 34 14 56 l25
25 16 -40 c22 -56 39 -42 21 17 -14 45 -13 49 8 73 12 14 27 28 34 33 7 4 22
25 34 47 15 27 26 37 33 30 18 -18 28 -10 21 19 -3 16 -1 38 4 48 6 10 16 31
22 48 l10 29 20 -44 c24 -52 25 -54 38 -46 11 7 -22 96 -40 107 -6 3 -5 33 2
80 6 41 11 79 12 86 0 7 7 15 15 18 11 4 9 14 -12 49 -14 25 -26 47 -26 49 0
3 14 0 31 -6 21 -8 42 -31 66 -69 19 -32 41 -58 49 -58 19 0 18 19 -3 42 -35
39 -5 24 47 -24 30 -28 76 -69 101 -92 34 -30 63 -73 108 -160 33 -65 61 -125
61 -133 0 -8 7 -27 15 -44 28 -53 27 -106 -3 -165 -15 -29 -32 -51 -39 -49
-15 5 -43 -21 -43 -41 0 -8 -5 -14 -10 -14 -6 0 -44 -34 -86 -75 -42 -41 -83
-75 -92 -75 -21 0 -178 -39 -267 -66 -27 -9 -63 -17 -80 -20 -119 -16 -174
-27 -223 -43 -47 -16 -59 -17 -76 -6 -12 7 -68 44 -125 81 -57 38 -111 74
-120 79 -9 6 -41 25 -70 44 l-52 34 7 71 c9 99 7 201 -6 266 -27 136 -43 253
-46 354 l-4 109 37 46 c64 79 155 161 180 161 12 0 30 -8 40 -18 27 -28 82
-47 95 -34 8 8 4 14 -16 24 -25 11 -26 13 -11 24 16 12 65 11 86 -1z m-967
-340 c-4 -18 -1 -27 10 -31 9 -3 16 -12 16 -20 0 -22 -17 -16 -23 7 -3 12 -10
18 -17 14 -8 -5 -8 -11 1 -21 10 -12 9 -13 -6 -8 -12 5 -16 4 -12 -3 4 -6 -5
-14 -20 -18 -31 -7 -132 -83 -174 -130 -49 -55 -59 -69 -59 -83 0 -9 -16 -44
-35 -79 -40 -73 -44 -88 -16 -73 21 11 38 14 28 4 -8 -9 23 -105 44 -136 11
-14 16 -33 13 -42 -3 -9 -1 -16 6 -16 6 0 8 5 5 10 -11 18 10 10 28 -10 24
-28 4 -62 -32 -55 -14 2 -36 -2 -48 -10 -14 -10 -23 -11 -23 -5 0 6 -5 8 -10
5 -6 -4 -21 0 -33 8 -27 17 -156 38 -234 38 -32 0 -61 5 -64 11 -5 8 -20 7
-51 -5 -23 -9 -87 -21 -141 -28 -53 -6 -100 -15 -103 -20 -3 -5 -14 -9 -25 -9
-37 0 -292 -91 -396 -141 -56 -27 -107 -49 -112 -49 -6 0 -11 -4 -11 -10 0 -5
-9 -10 -19 -10 -11 0 -26 -7 -35 -15 -8 -9 -22 -12 -32 -8 -10 4 -15 2 -11 -3
5 -9 -43 -46 -58 -44 -3 0 -15 -9 -27 -20 -17 -15 -24 -17 -30 -8 -5 9 -8 7
-8 -7 0 -11 -9 -26 -20 -33 -11 -7 -20 -8 -20 -3 0 6 8 15 18 20 16 10 16 10
0 11 -10 0 -18 -4 -18 -8 0 -5 -10 -14 -23 -20 -21 -10 -21 -11 -2 -12 18 -1
18 -2 -3 -10 -13 -6 -32 -6 -45 -1 -14 6 -29 5 -38 0 -11 -8 -10 -9 5 -7 12 2
21 -5 27 -20 7 -17 6 -21 -4 -15 -6 4 -21 9 -31 10 -11 2 -22 5 -24 8 -7 7 70
74 118 102 25 15 51 33 58 40 7 7 18 13 24 13 6 0 29 15 52 33 65 52 221 149
389 241 37 20 67 42 67 49 0 7 4 6 10 -3 9 -13 11 -13 20 0 13 19 13 30 0 30
-5 0 -10 14 -10 31 0 32 -38 109 -73 147 -22 24 -23 20 11 136 3 12 1 17 -8
14 -7 -2 -19 -25 -27 -52 -11 -37 -18 -46 -31 -42 -23 8 -152 27 -237 36 -38
4 -61 8 -50 9 13 1 16 4 8 9 -8 5 -2 13 18 24 18 10 27 12 23 5 -4 -6 2 -3 14
7 12 11 22 17 22 14 0 -4 28 4 63 17 148 53 255 84 340 98 78 13 94 8 65 -21
-9 -9 -8 -12 6 -12 10 0 21 12 27 29 8 22 18 30 42 34 18 3 84 12 147 21 63 9
127 19 141 22 l26 5 -13 -50 c-7 -27 -17 -59 -23 -70 -15 -26 -14 -41 2 -41
12 0 42 73 54 133 3 15 9 30 14 32 4 3 81 7 171 9 152 3 169 5 258 35 68 23
105 31 133 27 23 -3 36 -2 32 4 -3 6 -1 10 5 10 6 0 8 -10 4 -25z m261 -87
c-13 -146 -13 -158 0 -158 14 0 25 -22 25 -50 0 -10 8 -32 17 -48 16 -27 16
-37 4 -89 -7 -32 -17 -83 -23 -113 -11 -59 -4 -258 10 -287 50 -104 87 -173
94 -173 4 0 8 -7 8 -15 0 -20 98 -185 110 -185 14 0 12 12 -6 38 -26 38 -10
36 50 -6 31 -22 81 -50 111 -62 30 -12 55 -25 55 -29 0 -9 86 -14 225 -14 87
0 134 5 170 17 166 57 303 184 401 371 30 56 35 61 89 79 44 15 75 35 128 85
l69 65 -7 -49 c-4 -28 -16 -76 -26 -109 -11 -32 -19 -67 -19 -76 0 -10 -11
-38 -25 -61 -14 -24 -30 -60 -36 -79 -7 -19 -15 -37 -19 -40 -4 -3 -25 -36
-48 -75 -22 -38 -61 -91 -86 -117 -25 -26 -46 -49 -46 -52 0 -2 -21 -27 -47
-54 -27 -28 -52 -55 -58 -61 -45 -48 -189 -153 -245 -178 -8 -3 -27 -15 -42
-25 -26 -18 -194 -67 -245 -72 -13 -2 -26 -6 -30 -9 -3 -4 -18 -7 -32 -7 -14
-1 -44 -7 -65 -15 -34 -12 -51 -12 -120 0 -45 8 -105 15 -135 15 -52 0 -57 -2
-155 -80 -55 -44 -108 -85 -116 -92 -9 -7 -32 -26 -53 -41 l-37 -28 -75 56
c-49 37 -72 61 -68 71 3 7 10 14 15 14 6 0 8 7 5 15 -4 8 -2 17 3 20 5 3 7 12
3 20 -3 8 0 15 6 15 6 0 10 4 9 9 -2 5 8 18 21 30 19 16 21 21 8 21 -10 0 -17
8 -17 20 0 12 7 20 16 20 8 0 22 7 30 15 14 13 14 15 1 15 -9 0 -18 -6 -20
-12 -4 -8 -6 -7 -6 3 -1 23 25 44 32 27 4 -8 6 -7 6 5 1 9 -5 17 -13 17 -9 0
-12 7 -9 20 3 11 10 20 15 20 5 0 6 -4 3 -10 -3 -5 -1 -10 4 -10 14 0 14 17 1
25 -6 4 -7 11 -4 17 4 6 10 5 15 -3 6 -9 8 6 5 38 -2 43 -8 57 -30 74 -15 12
-25 24 -22 27 4 3 0 12 -7 21 -16 19 -52 111 -66 166 -32 129 -49 225 -52 295
-4 78 12 244 26 265 7 11 15 36 18 55 2 19 12 60 22 90 9 30 20 69 24 86 5 18
36 89 71 158 61 126 88 158 133 161 21 2 47 30 47 52 0 7 2 13 5 13 3 0 3 -28
0 -62z m-260 -128 c-18 -8 -17 -9 8 -9 19 -1 26 3 21 11 -4 6 -3 8 4 5 12 -8
4 -47 -9 -47 -5 0 -9 -6 -9 -14 0 -8 -5 -18 -12 -22 -8 -5 -9 -2 -5 9 3 9 3
19 -2 21 -11 7 -10 -27 2 -41 9 -12 -2 -18 -26 -14 -5 1 -8 -11 -7 -26 4 -50
0 -71 -13 -85 -8 -7 -13 -23 -12 -35 1 -12 -3 -21 -9 -20 -5 1 -10 -7 -11 -17
0 -11 -6 -20 -13 -22 -7 -1 -8 0 -2 3 7 3 7 9 1 16 -5 7 -11 21 -14 32 -4 18
-5 18 -6 -2 -1 -24 -30 -33 -32 -10 0 6 -3 31 -5 55 -9 76 12 114 111 197 17
14 37 25 45 24 10 0 8 -3 -5 -9z m581 -267 c-15 -140 -16 -172 -6 -194 11 -22
104 -88 326 -228 l80 -51 65 19 c80 23 181 42 188 36 6 -7 -49 -56 -134 -122
-33 -26 -62 -50 -65 -53 -3 -3 -43 -24 -90 -47 -58 -29 -109 -46 -160 -53
l-75 -11 -81 46 c-94 53 -133 92 -158 155 -10 25 -24 59 -31 75 -14 34 -11
164 4 193 6 11 13 34 16 52 3 18 12 45 20 61 8 15 15 37 15 49 0 21 68 120 82
120 5 0 6 -21 4 -47z m-2868 -302 c2 -41 -4 -132 -13 -205 -29 -243 -36 -321
-36 -415 0 -115 8 -166 28 -182 13 -11 15 -9 13 21 -5 59 -1 73 15 66 8 -3 15
-1 15 5 0 6 5 7 10 4 6 -3 10 -2 10 4 0 6 13 24 30 41 16 16 26 30 22 30 -18
1 26 20 46 20 17 0 22 -6 22 -24 0 -14 -5 -28 -10 -31 -7 -4 -6 -14 1 -28 9
-18 9 -20 -2 -9 -19 18 -34 15 -18 -5 12 -14 12 -15 0 -9 -8 5 -17 3 -22 -5
-7 -11 -9 -10 -9 5 0 16 -2 16 -16 5 -11 -9 -14 -22 -10 -44 4 -17 3 -35 -1
-39 -5 -4 -8 -11 -8 -14 0 -14 -69 -112 -78 -112 -5 0 -27 5 -47 11 -40 12
-53 36 -55 106 -1 31 0 32 19 15 21 -19 22 -29 -4 168 -10 76 -8 193 6 313 3
23 0 37 -7 37 -8 0 -8 4 -1 13 11 13 18 57 27 162 7 80 11 97 32 143 23 52 38
34 41 -47z m233 -776 c7 6 2 -80 -5 -100 -17 -46 -25 -72 -29 -107 -6 -38 -60
-122 -86 -133 -19 -7 -33 15 -25 40 3 11 10 40 14 65 34 171 75 259 110 240
10 -5 19 -8 21 -5z m2987 -192 c-9 -10 -18 -27 -20 -38 -2 -11 -10 -20 -18
-20 -8 -1 -35 -4 -60 -9 -25 -4 -52 -8 -60 -9 -8 -2 -20 -5 -25 -9 -6 -3 -82
-7 -169 -7 -94 -1 -167 -6 -180 -13 -12 -6 -41 -31 -66 -55 -25 -23 -48 -43
-51 -43 -3 0 -12 12 -20 27 -11 21 -12 27 -1 31 7 2 50 34 95 71 l82 67 60
-14 c81 -18 290 -19 305 -1 5 6 113 37 134 38 5 1 2 -7 -6 -16z"/>
<path d="M3295 3798 c-90 -32 -125 -90 -125 -204 l0 -77 40 -38 c46 -44 75
-54 125 -45 68 13 135 113 135 201 0 113 -88 195 -175 163z"/>
</g>
</svg>
